inDegrees=no
num_controls=7
num_derivatives=13
num_iterations=188
num_multipliers=7
num_parameters=0
num_slacks=7
num_states=26
objective=5.142396
objective_accelerations=0.356069
objective_balance=0.010958
objective_effort=0.342304
objective_height=4.357224
objective_ligament=0.075841
solver_duration=1609.815024
status=Solve_Succeeded
success=true
DataType=double
version=3
OpenSimVersion=4.4-2022-07-23-0e9fedc
endheader
time	/jointset/ground_pelvis/pelvis_tilt/value	/jointset/ground_pelvis/pelvis_tx/value	/jointset/ground_pelvis/pelvis_ty/value	/jointset/hip_r/hip_flexion_r/value	/jointset/hip_r/hip_adduction_r/value	/jointset/hip_r/hip_rotation_r/value	/jointset/back/lumbar_extension/value	/jointset/patellofemoral_r/patellar_flexion_r/value	/jointset/knee_r/knee_flexion_r/value	/jointset/knee_r/knee_adduction_r/value	/jointset/knee_r/knee_rotation_r/value	/jointset/ankle_r/ankle_angle_r/value	/jointset/subtalar_r/subtalar_angle_r/value	/jointset/ground_pelvis/pelvis_tilt/speed	/jointset/ground_pelvis/pelvis_tx/speed	/jointset/ground_pelvis/pelvis_ty/speed	/jointset/hip_r/hip_flexion_r/speed	/jointset/hip_r/hip_adduction_r/speed	/jointset/hip_r/hip_rotation_r/speed	/jointset/back/lumbar_extension/speed	/jointset/patellofemoral_r/patellar_flexion_r/speed	/jointset/knee_r/knee_flexion_r/speed	/jointset/knee_r/knee_adduction_r/speed	/jointset/knee_r/knee_rotation_r/speed	/jointset/ankle_r/ankle_angle_r/speed	/jointset/subtalar_r/subtalar_angle_r/speed	/forceset/tau_hip_flexion_r	/forceset/tau_hip_adduction_r	/forceset/tau_hip_rotation_r	/forceset/tau_knee_flexion_r	/forceset/tau_ankle_angle_r	/forceset/tau_subtalar_angle_r	/forceset/tau_lumbar_extension	lambda_cid13_p0	lambda_cid14_p0	lambda_cid14_p1	lambda_cid14_p2	lambda_cid14_p3	lambda_cid14_p4	lambda_cid14_p5	/jointset/ground_pelvis/pelvis_tilt/accel	/jointset/ground_pelvis/pelvis_tx/accel	/jointset/ground_pelvis/pelvis_ty/accel	/jointset/hip_r/hip_flexion_r/accel	/jointset/hip_r/hip_adduction_r/accel	/jointset/hip_r/hip_rotation_r/accel	/jointset/back/lumbar_extension/accel	/jointset/patellofemoral_r/patellar_flexion_r/accel	/jointset/knee_r/knee_flexion_r/accel	/jointset/knee_r/knee_adduction_r/accel	/jointset/knee_r/knee_rotation_r/accel	/jointset/ankle_r/ankle_angle_r/accel	/jointset/subtalar_r/subtalar_angle_r/accel	gamma_cid13_p0	gamma_cid14_p0	gamma_cid14_p1	gamma_cid14_p2	gamma_cid14_p3	gamma_cid14_p4	gamma_cid14_p5
0	-0.007037326846109357	0.1316215947657079	0.9333506098117036	0.1934208783645156	-0.2285670827722119	-0.2423202962605398	-0.2903791543005566	0.2311793314021641	0.2311793314021609	0.1332118309366795	0.1742188753177274	0.08934340440958972	0.06340431069112358	0	0	0	0	0	0	0	0	0	0	0	0	0	0.09433285707296739	-0.08330480131848336	0.002153486173880088	-0.2519502292396803	0.1435142323596809	-0.07369093777321185	-0.01151849458501069	-29.968445005216	0.4342033478444504	-26.84170283644708	-1.108480689303469	-14.31332800229035	-619.2299408059024	61.19883883544565	-0.6089848974177702	-1.103120124792467	-0.6025791362219239	6.457212599742964	-0.1304503629193647	2.048351812532627	-5.51496754421438	8.046787596046213	8.046787596046242	-1.810968552269109	0.1140741843186876	2.713699818219562	0.5975516094367591	3.568988406277934e-08	1.477775573256368e-08	-2.65615234793383e-07	1.603577636423357e-07	1.696400453677208e-08	7.188368636470635e-08	-2.209766152356167e-07
0.01	-0.007063863808632574	0.1315671354675101	0.9333213545661957	0.1937346469535762	-0.2285724896484717	-0.2422169410409907	-0.2906552600017995	0.2315738533633713	0.231573853363365	0.133121187684179	0.174221003402169	0.0894767396430427	0.06343487169819073	-0.005283976310349912	-0.01083941610733417	-0.005833734859868785	0.06245842250653093	-0.001112161295551142	0.02059275241938288	-0.05487169858757982	0.07854686215241642	0.07854686215241706	-0.01795972587934724	0.0004233485942322717	0.0265371557484452	0.006038128036313345	0.09044671773230466	-0.08496444014666549	0.002562135834081616	-0.2473461795273937	0.1365626482764758	-0.06971639605691092	-0.008166765245300474	-29.97234048465354	-1.653146830830066	-25.34537028852097	-1.502004073837405	-13.35660715125442	-620.5904055379286	63.863331154805	-0.4845918264140358	-1.066482431256696	-0.5711591478653842	6.095863378245895	-0.1062258112899746	2.053027263774126	-5.420854766758916	7.704998873583638	7.70499887358373	-1.763162036766266	0.006157416145986728	2.604245358509887	0.5958096144020451	4.599103371840234e-08	9.354279162920648e-09	-3.339063178577396e-07	1.782931349034876e-07	2.945633279318366e-08	1.289467822445228e-09	-2.600474386258868e-07
0.02	-0.007142538099977859	0.1314058559927283	0.9332342842746898	0.194664141028128	-0.2285899434973708	-0.2419100002358232	-0.2914695994390653	0.2327431166158491	0.2327431166158481	0.1328560096867154	0.1742273034163845	0.08987155081504908	0.06352358722835569	-0.01042746576350431	-0.021364035316829	-0.01156300919962272	0.1231450970985687	-0.002409394527788768	0.04071711712408583	-0.1076467472043154	0.1549482582546031	0.1549482582546048	-0.03490694899864556	0.0008343859552843983	0.05229518771100405	0.01163090461956356	0.08656057839165765	-0.08662407897482821	0.002970785494284112	-0.2427421298151002	0.1296110641932799	-0.06574185434058345	-0.00481503590558496	-29.98370469198804	-3.678639928721056	-23.85385929143335	-1.876879205346966	-12.4092052320963	-620.9823292798274	66.31816004817436	-0.5808875259785973	-1.040160745224667	-0.5816870321989498	6.102863016844351	-0.1674647502566658	1.954674269596636	-5.0956375500455	7.617694386000272	7.617694386000383	-1.60846800025932	0.1116119376826687	2.557875061042219	0.5084813188241077	5.629218337402533e-08	3.930802593277619e-09	-4.021974009220963e-07	1.962285061646394e-07	4.194866104959524e-08	-6.930475071981589e-08	-2.99118262016157e-07
0.03	-0.007272164224275306	0.1311409431786744	0.9330902740479179	0.1961919158167491	-0.2286213467843971	-0.2414045270639067	-0.2928010922752886	0.2346658414510907	0.2346658414510926	0.132426596072353	0.1742379576059506	0.09052010277389311	0.0636659737254313	-0.01547319852387709	-0.03156180680989296	-0.01723399615245701	0.1821154402741935	-0.003888957313648576	0.06029797881061241	-0.1583161843452979	0.2292445343413148	0.2292445343413161	-0.05082326161469713	0.001277629601334445	0.07729497780898398	0.01679230893301976	0.08254870481749306	-0.08314025359344739	0.003344509647659904	-0.2387904410480562	0.1244629320591242	-0.06565188127880871	-0.001375667320238087	-30.0021024957996	-5.356076141347394	-24.07484381363223	-1.880081684586815	-11.65222327050221	-621.6637147465688	65.10998336899024	-0.462728418900955	-1.001068808706595	-0.559062672652153	5.749958765357644	-0.1408737541712655	1.947905065333488	-5.002251441766303	7.282756752102955	7.282756752102831	-1.560379215170791	0.007898134458217559	2.45300535493742	0.5118172557263356	6.058344589632757e-08	-2.19268663737257e-09	-4.29136046853721e-07	1.940461370894583e-07	5.018791396891323e-08	-1.311966469477833e-07	-3.075135346914022e-07
0.04	-0.007451510129746164	0.1307757559582178	0.9328897023224523	0.1983005617966086	-0.2286680800415641	-0.2407056226856924	-0.294629210412051	0.2373209615536202	0.2373209615536187	0.1318425860672381	0.1742524877432519	0.09141504750786969	0.06385834371926546	-0.02037142199760801	-0.04141891659737169	-0.022875308938379	0.2393193353472639	-0.005475388556330902	0.07940335838325169	-0.2069718073119386	0.3014273117118787	0.3014273117118794	-0.06582622714645528	0.001609575503066966	0.1015737427374238	0.02162760397127297	0.07853683124329394	-0.07965642821207493	0.003718233801007876	-0.2348387522810315	0.1193147999249581	-0.0655619082170468	0.002063701265089894	-30.02675007200672	-6.97630281736599	-24.30064115886405	-1.865576928795423	-10.91079485101719	-621.4535737701132	63.71273386786936	-0.5513856686501596	-0.9720284041076837	-0.5757521988164865	5.749573396333515	-0.1888384416211734	1.85957784681917	-4.692874715177121	7.1949946427707	7.194994642770794	-1.425798583400629	0.08935238881917547	2.413670027134122	0.4432594637834859	6.475079322000463e-08	-8.330609118765176e-09	-4.552220652155986e-07	1.914489692444557e-07	5.833947461323959e-08	-1.929091138496829e-07	-3.152763217848943e-07
0.05	-0.007679388575662791	0.1303137167404813	0.9326327139621183	0.2009727651244339	-0.2287313885226097	-0.2398184817381659	-0.2969336219199514	0.2406875360836126	0.2406875360836132	0.1311135255186952	0.174270278653365	0.09254916420655088	0.06409722874329901	-0.0251825025221719	-0.05092993481909353	-0.02852726942148666	0.2948296176201106	-0.007198450478437041	0.09793390901961166	-0.2535834226090716	0.3715358793405978	0.3715358793405982	-0.07983551059960828	0.001930646068166148	0.1251310329074041	0.02610335697173043	0.07436679878626871	-0.07772618315141418	0.004135091924890548	-0.2314178017427788	0.1141637313639462	-0.06395486785511029	0.005624119888473012	-30.05681957127379	-8.536609902933373	-23.84215283433347	-1.977222448789785	-10.27572843565728	-621.604825920674	63.75939044940416	-0.4426979857758637	-0.9317779779864084	-0.5606929975185867	5.408001287042046	-0.1658839007632291	1.83619968923784	-4.596244188035031	6.866017597185498	6.86601759718533	-1.365988598839277	0.0008309523964527335	2.308983071939921	0.4427781547506767	6.301618440823853e-08	-1.486874886505896e-08	-4.391123282854474e-07	1.69446911358064e-07	6.218183954874691e-08	-2.449694090725749e-07	-2.925864777231266e-07
0.06	-0.007954723575108865	0.1297583394511709	0.9323190509920611	0.2041913204038423	-0.2288122963895274	-0.2387487540808367	-0.299694337431034	0.2447446422447477	0.2447446422447474	0.1302488730611099	0.1742907495815291	0.09391529871893389	0.0643794802846519	-0.0298627327033848	-0.06008653091214405	-0.03421023088301815	0.3485897256642244	-0.008995265730858947	0.1159207003437096	-0.2982326079483417	0.4395336379398366	0.4395336379398351	-0.09294460895542594	0.002145579114912814	0.1479773054777813	0.03030090743513907	0.07019676632923379	-0.07579593809075585	0.004551950048737143	-0.2279968512045269	0.1090126628029336	-0.06234782749317633	0.009184538511850216	-30.09120872508506	-10.04446967939093	-23.38671634220545	-2.074405574726588	-9.663104879634469	-620.9470871389776	63.64392784652271	-0.5252155999798999	-0.9011439783734841	-0.581952394501249	5.39953855058694	-0.203589107684329	1.750825984366753	-4.300388723604534	6.772832836874642	6.772832836874449	-1.245761563933557	0.06812488514868489	2.271466507213425	0.3876189563737003	6.103307218024326e-08	-2.142373986461175e-08	-4.212259279745793e-07	1.466278054699295e-07	6.584276466493553e-08	-2.966232970668772e-07	-2.686144176127163e-07
0.07000000000000001	-0.008276489348034294	0.1291131480506373	0.9319482747831132	0.2079391620144946	-0.2289117006500245	-0.2375022358270187	-0.3028915908810103	0.2494714378030073	0.2494714378030053	0.1292579676009295	0.1743133042308365	0.09550633338285151	0.06470212631524379	-0.03447001931750324	-0.0688938464148881	-0.0399574252488419	0.4006936018795351	-0.0108909502700756	0.1332867138743042	-0.3409053382016543	0.505475699105593	0.5054756991055909	-0.1050933813744552	0.002345487715188951	0.1701102126924145	0.03419070893903661	0.06585282023653494	-0.07327257442040379	0.004984048286542797	-0.2249710508837966	0.1041104914132368	-0.06094905061953743	0.01287133711394743	-30.12880163873518	-11.51044444141269	-23.02665906159333	-2.142374513533059	-9.064163445622034	-620.6865465437734	63.31835085134926	-0.4254162817365016	-0.8618267065256981	-0.5730250597217099	5.073065705288439	-0.1833857927314823	1.715089358341368	-4.203803599324193	6.452414382907677	6.452414382907688	-1.178019269249601	-0.00702388825405513	2.166298731439982	0.3839742353679571	5.449484157935138e-08	-2.851052991385677e-08	-3.740610198033951e-07	1.045103634079392e-07	6.627889397790183e-08	-3.389525998007531e-07	-2.188630579137627e-07
0.08	-0.008643714205022357	0.1283816232210159	0.9315196422100873	0.2121994930969573	-0.2290302272890517	-0.2360849373737076	-0.3065061893181453	0.2548471582982216	0.2548471582982187	0.1281498575788869	0.1743372684189994	0.09731511629948587	0.06506253305846868	-0.03895454951596619	-0.07735321672971542	-0.04578150369860579	0.4510876200262517	-0.01281974143693849	0.1500767402423218	-0.3817016053801415	0.5693186253306119	0.5693186253306106	-0.1163855213279634	0.002427486886620314	0.1915269560211167	0.03785304996174049	0.06150887414383831	-0.07074921075005353	0.005416146524336241	-0.2219452505630621	0.09920832002354174	-0.05955027374590011	0.01655813571604658	-30.16825350435118	-12.92891646415249	-22.66901959569001	-2.197695435123715	-8.492780062787089	-619.6986380886777	62.85582802759794	-0.5006643168487376	-0.8315549407902023	-0.5973292112892779	5.05756693686814	-0.2102104332135776	1.635628551851367	-3.925096108639444	6.353005848727154	6.353005848727242	-1.074435070829346	0.04454299937974283	2.128233730027175	0.3421268601349457	4.766273237375652e-08	-3.563162957921096e-08	-3.250071756412228e-07	6.114786739924867e-08	6.650697194872473e-08	-3.806803163887951e-07	-1.674485175961934e-07
